<svg viewBox="0 0 109 120" fill="none" xmlns="http://www.w3.org/2000/svg"><path d="M57.36 92.78l-27.5 17-20.5-30.5c-1-2.5-2.28-8.74 4.12-12.74 7.17-4.48 12.88-.76 14.88 1.24l4.97 6.85s1.06 1.56 3.07 1.93c1.55.28 3.14-.6 3.14-.6 1.68-1.33 3.72-3.38 7.32-4.18 3.6-.8 7.5 1 9 2 1.6.8 3 .34 3.5 0 2.17-1.66 4.5-5.8-3.5-9s-15.66.67-18.5 3l-4.8-6.66c-2.84-3-12-7.64-23.2-.84s-9.66 17.84-7.5 22.5l23.5 35c.34.5 1.4 1.5 3 1.5s3.34-1 4-1.5l32-20c1-1 3.2-3.3 4-4.5.8-1.2 2.34-5.16 3-7l15.5-60.5 12 16c.5.84 1.5 3.2 1.5 6s-1 4.84-1.5 5.5l-11 14.5c-.5 1.17-.9 3.9 1.5 5.5s4.67 0 5.5-1l11.5-16.5c.5-.83 1.6-3.6 2-8 .4-4.4-1.5-8.16-2.5-9.5l-12-16.5c-.33-.33-1.3-1.9-2.5-5.5s.17-8.83 1-11c.17-1.16-.2-3.7-3-4.5-2.8-.8-4.5 1.67-5 3-6.66 26-20.3 78.9-21.5 82.5a12.07 12.07 0 01-5.5 6.5z" fill="currentColor" /></svg>